<svg width="30" height="30" viewBox="0 0 30 30" fill="none" xmlns="http://www.w3.org/2000/svg">
<path opacity="0.4" d="M14.9999 0.833046C22.8128 0.833046 29.1666 7.18821 29.1666 14.9997C29.1666 22.8112 22.8128 29.1664 14.9999 29.1664C7.18842 29.1664 0.833252 22.8112 0.833252 14.9997C0.833252 7.18821 7.18842 0.833046 14.9999 0.833046Z" fill="white"/>
<path d="M12.9565 9.02039C13.2271 9.02039 13.4991 9.12381 13.7059 9.33064L18.6458 14.2465C18.8456 14.4462 18.9575 14.7168 18.9575 15.0001C18.9575 15.2821 18.8456 15.5526 18.6458 15.7524L13.7059 20.6711C13.2908 21.0847 12.6193 21.0847 12.2043 20.6682C11.7906 20.2517 11.792 19.5788 12.2071 19.1651L16.3905 15.0001L12.2071 10.8351C11.792 10.4215 11.7906 9.74998 12.2043 9.33348C12.4111 9.12381 12.6845 9.02039 12.9565 9.02039Z" fill="white"/>
</svg>
