<svg width="26" height="30" viewBox="0 0 26 30" fill="none" xmlns="http://www.w3.org/2000/svg">
<path d="M24.0069 14.4975C22.972 13.2891 22.5017 12.2418 22.5017 10.4626V9.85767C22.5017 7.53916 21.9681 6.04532 20.808 4.55149C19.0198 2.23155 16.0096 0.833313 13.0627 0.833313H12.9374C10.0525 0.833313 7.13655 2.16735 5.31745 4.39312C4.09393 5.91691 3.49835 7.47495 3.49835 9.85767V10.4626C3.49835 12.2418 3.05907 13.2891 1.99323 14.4975C1.20899 15.3878 0.958374 16.5321 0.958374 17.7706C0.958374 19.0104 1.36528 20.1847 2.1819 21.1392C3.24774 22.2835 4.75286 23.014 6.29036 23.1409C8.51637 23.3949 10.7424 23.4905 13.0008 23.4905C15.2577 23.4905 17.4837 23.3307 19.7111 23.1409C21.2472 23.014 22.7524 22.2835 23.8182 21.1392C24.6334 20.1847 25.0417 19.0104 25.0417 17.7706C25.0417 16.5321 24.7911 15.3878 24.0069 14.4975Z" fill="#99C0F9"/>
<path opacity="0.4" d="M15.8444 25.2403C15.1362 25.0891 10.8208 25.0891 10.1126 25.2403C9.50712 25.3801 8.85242 25.7055 8.85242 26.4188C8.88762 27.0994 9.28607 27.7001 9.838 28.081L9.83659 28.0825C10.5504 28.6389 11.3882 28.9928 12.2653 29.1197C12.7328 29.1839 13.2087 29.1811 13.693 29.1197C14.5688 28.9928 15.4065 28.6389 16.1204 28.0825L16.119 28.081C16.6709 27.7001 17.0693 27.0994 17.1045 26.4188C17.1045 25.7055 16.4498 25.3801 15.8444 25.2403Z" fill="#200E32"/>
</svg>
