<svg width="108" height="83" viewBox="0 0 108 83" fill="none" xmlns="http://www.w3.org/2000/svg">
<path d="M106.414 13.7545C105.305 13.1545 104.168 12.5818 103.059 12.0091C99.7039 10.2363 96.3775 8.43635 92.8236 7.01816C92.4539 6.85453 92.0843 6.5818 91.6294 6.66362C88.8147 7.07271 85.9716 6.82725 83.1285 6.93635C80.4275 7.04544 77.7549 7.12725 75.0539 7.34544C73.9451 7.42725 72.8363 7.80907 71.6706 7.64544C71.2441 6.47271 70.903 5.29998 70.1637 4.29089C68.9696 2.6818 67.349 2.05453 65.3588 2.29998C63.4539 2.51816 62.1177 3.47271 61.5206 5.27271C61.4922 5.3818 61.4353 5.43635 61.2932 5.3818C61.0657 5.29998 61.0657 5.05453 60.952 4.86362C60.4118 3.77271 59.6441 2.87271 58.6775 2.13635C57.4549 1.20907 56.0618 0.663619 54.4981 0.77271C52.3088 0.936346 50.9726 2.13635 50.2618 4.07271C50.1196 4.45453 50.1196 4.91817 49.75 5.21816C49.4941 4.83635 49.2951 4.4818 49.0392 4.15453C47.8451 2.62726 46.3383 1.67271 44.3196 1.4818C41.3343 1.1818 38.5765 2.95453 37.4392 5.70907C37.1549 6.36362 36.9559 7.04544 36.7 7.7818C36.501 7.61816 36.3588 7.50907 36.2167 7.39998C34.3402 5.76362 32.1794 5.76362 29.9902 7.20907C28.9951 7.86362 28.3128 8.79089 27.6588 9.63635C22.4275 9.77271 17.2814 9.96362 12.0216 10.8363C11.8226 10.7 11.453 10.4545 10.9412 10.4818C9.23531 10.5363 7.52942 10.4818 5.85197 10.7818C2.80981 11.3273 1.18922 12.7182 0.762754 15.9363C0.620597 17.0545 0.705892 18.2 0.848049 19.3454C1.01864 20.6545 1.16079 21.9636 1.30295 23.2727C1.5304 25.1273 1.75785 26.9545 2.41177 28.7273C3.23628 30.9091 4.48726 31.7273 6.8755 31.8091C8.43923 31.8636 9.97452 31.5909 11.5667 31.2909C12.6186 32.2454 13.7559 32.4091 14.9784 31.5636C15.1775 31.4273 15.4049 31.5091 15.6324 31.5091C17.3382 31.5363 19.0441 31.5091 20.75 31.4818C22.7402 31.4273 24.702 31.1818 26.6069 31.2909C26.7206 31.3727 26.7775 31.4 26.8059 31.4273C26.9196 31.7818 27.0333 32.1091 27.1471 32.4636C28.4265 36.1727 30.5304 39.3363 33.9137 41.6273C35.0226 42.3909 36.103 43.2091 37.0696 44.1636C38.0363 45.1182 38.5765 46.2364 38.6049 47.5727C38.6334 48.1727 38.6049 48.7454 38.5765 49.3454C38.2922 53.3818 38.6334 57.4182 38.9177 61.4545C39.1451 64.4273 39.4579 67.4273 39.6284 70.4C39.799 73.5363 40.0549 76.6454 39.9412 79.7818C39.9128 80.7364 40.1686 81.5545 41.0785 82.2364C41.0785 81.5545 41.0785 80.9545 41.0785 80.3818C41.05 76.2636 40.851 72.1182 40.5667 68C40.4245 65.8727 40.2539 63.7454 40.1118 61.6182C39.8843 58.4818 39.5716 55.3727 39.6284 52.2364C39.6569 50.5182 39.9128 48.8 39.9981 47.0818C40.0834 45.5818 39.4579 44.4363 38.3206 43.5091C37.6951 43.0182 37.0412 42.5545 36.3588 42.1727C31.952 39.6636 29.4216 35.7363 27.2608 31.1545C41.0784 30.2273 54.6971 29.7091 68.3441 29.1363C67.5196 32.1363 67.8039 35.5727 68.7422 37.0182C69.4814 36.9909 69.453 36.5545 69.3392 36.0091C68.8275 33.2818 68.9981 30.6091 69.7373 27.9363C69.9079 27.3363 70.2775 26.7636 70.05 26C67.9461 25.0454 65.9559 23.8454 64.5059 21.9909C63.0559 20.1363 62.1461 18.0636 62.1461 15.5273C66.2687 20.2182 71.0451 19.9454 73.3481 15.0363C75.3951 16.4818 77.2147 18.4454 78.2951 20.2182C82.0765 26.4909 80.7971 35.1363 75.3667 40.6182C74.5137 41.4636 73.6039 42.2545 72.7226 43.1C71.7559 44 71.2157 45.0636 71.2157 46.3727C71.1873 47.7909 71.2441 49.1818 71.4432 50.5727C71.7275 52.5364 71.8981 54.5273 72.1255 56.5182C72.4383 59.5454 72.751 62.5727 73.0638 65.6C73.4049 68.8454 73.7745 72.0909 74.1441 75.3363C74.3147 76.7273 74.3147 78.1182 74.7128 79.5363C75.5941 78.5545 75.6226 78.5545 75.5373 77.6C75.4236 76.2091 75.2814 74.7909 75.1392 73.4C74.7981 70.2091 74.4285 66.9909 74.0873 63.8C73.8314 61.5091 73.6608 59.1909 73.4049 56.9C73.1206 54.2273 72.6657 51.6091 72.552 48.9091C72.4383 46.5909 73.149 44.5454 74.7981 42.8C75.5657 41.9818 76.3049 41.1636 77.0441 40.3454C79.5177 37.5636 81.1098 34.3727 81.5932 30.6909C81.7353 29.5454 81.6216 28.3454 81.9059 27.1727C84.1804 27.2545 86.4265 27.3636 88.6441 27.1454C90.151 27.0091 91.8 27.3363 93.0794 26.1909C95.5245 25.3727 97.5432 23.8454 99.6471 22.4818C101.808 21.0636 103.855 19.5363 105.675 17.7363C106.243 17.1909 106.783 16.6182 107.125 15.9091C107.551 14.7909 107.38 14.3 106.414 13.7545ZM8.92256 21.4454C9.00785 24.5818 9.57648 27.6636 11.1118 30.5818C9.26374 30.7454 7.50099 30.8818 5.76668 30.3909C4.80001 30.1182 4.11766 29.5454 3.66276 28.7C2.89511 27.3091 2.66766 25.7818 2.46864 24.2545C2.18432 22.1545 2.01374 20.0273 1.70099 17.9273C1.5304 16.8636 1.67256 15.8273 1.92844 14.8454C2.21276 13.8091 3.00883 13.0727 3.9755 12.5273C4.80001 12.0636 5.70981 11.7636 6.64805 11.6545C8.18334 11.4636 9.74707 11.2727 11.453 11.3C8.69511 14.3 8.83726 17.9 8.92256 21.4454ZM37.6667 9.60907C37.752 8.10907 38.0647 6.63635 38.8892 5.32725C40.1402 3.36362 42.0167 2.40907 44.3481 2.59998C46.6794 2.79089 48.1863 4.09998 49.0677 6.17271C49.4941 7.15453 49.5794 8.13635 49.6647 9.17271C50.0343 13.3182 49.9206 17.5182 51.001 21.5818C51.2569 22.5909 51.0294 23.5454 50.5745 24.5818C50.0628 24.2273 50.1196 23.7091 49.8922 23.3273C49.0677 21.7727 47.902 20.5727 46.0824 20.1091C42.9549 19.3182 40.2255 21.6636 40.652 24.7182C40.7088 25.2091 40.7657 25.7 40.8226 26.3C40.1118 25.8909 39.9128 25.2636 39.6284 24.7182C38.8892 23.2727 38.5196 21.7182 38.2922 20.1636C37.8088 16.6727 37.4392 13.1545 37.6667 9.60907ZM30.1039 8.57271C31.753 7.04544 35.0226 6.77271 36.5579 9.00907C36.1314 13.2909 36.8422 17.5182 37.6098 21.8545C36.7285 20.9273 35.8755 20.1909 34.6814 19.8909C32.4069 19.3454 30.7294 20.6273 30.8147 22.8909C30.8432 23.3273 30.8716 23.7909 31.1559 24.3363C30.4451 23.9545 30.2745 23.4091 30.1039 22.9454C29.1373 20.2454 28.2275 17.5454 27.801 14.7091C27.4598 12.3091 28.2559 10.2636 30.1039 8.57271ZM38.15 23.6273C37.8373 24.3091 37.4108 24.8545 36.8706 25.2909C35.6765 26.2727 34.3686 26.4636 32.9186 25.8363C32.4353 25.6182 32.0373 25.3182 31.8951 24.7727C31.7814 24.3363 31.6108 23.9 31.5255 23.4636C31.2981 22.4818 31.4402 21.5273 32.2932 20.8727C33.1461 20.2182 34.1696 20.3818 35.1363 20.6818C35.8755 20.9 36.4441 21.3909 36.9275 21.9909C37.3539 22.5091 37.752 23.0818 38.15 23.6273ZM41.1069 29.2454C36.4726 29.4636 31.8667 29.6273 27.2324 29.9C23.8775 30.0909 20.551 30.3909 17.1961 30.6363C16.7696 30.6636 16.3432 30.7727 15.8598 30.5818C15.4049 28.6454 15.1775 26.6 14.9784 24.5818C14.6941 21.8818 14.5235 19.1545 14.5804 16.4273C14.6088 14.5454 14.8363 12.7182 15.9167 10.9454C19.6412 11.0818 23.252 10.6454 26.9765 10.6454C27.0049 11.3545 26.6637 11.9545 26.6069 12.6091C26.4647 14.0273 26.6353 15.4182 27.0334 16.7818C27.6304 18.8273 28.2559 20.8727 28.9098 22.8909C29.1088 23.5454 29.4216 24.1727 29.7628 24.7454C31.3834 27.5818 34.9657 28.1273 37.4677 25.9727C37.8373 25.6454 38.2922 25.4 38.7186 25.1C39.401 26.6 40.4814 28.0727 42.4432 29.1636C41.7608 29.2182 41.4481 29.2454 41.1069 29.2454ZM44.8883 28.7273C43.8932 28.6727 43.0686 28.2636 42.2441 27.8273C41.9883 27.6909 41.7608 27.5 41.7039 27.2273C41.4481 25.9727 41.1353 24.7182 41.4481 23.4636C41.9598 21.3636 44.149 20.3 46.3098 21.0636C48.0726 21.6909 48.9255 23.0818 49.4941 24.6636C49.6363 25.0727 49.7216 25.5363 49.8637 26.0273C48.6981 27.6363 47.1912 28.8091 44.8883 28.7273ZM65.3873 24.4182C66.6667 25.1818 67.9177 26 69.4245 26.3818C69.1971 26.9 68.9981 27.3363 68.7706 27.8273C67.4059 28.0727 66.1549 27.8273 65.0745 27.0091C64.8471 26.1091 64.9039 25.2636 65.3873 24.4182ZM65.3304 28.1273C59.6157 28.5091 54.1569 28.5909 48.499 28.9182C50.2049 27.6363 51.3422 26.1363 51.7118 24.1182C52.3373 24.4727 52.4794 25.1 52.849 25.5363C53.7873 26.7363 54.9814 27.5818 56.5167 27.9091C58.8481 28.4273 60.8383 27.6091 62.0892 25.6727C62.2598 25.4273 62.402 25.1545 62.6863 24.7182C63.3402 26.0273 63.9088 27.2273 65.3304 28.1273ZM57.5118 19.5091C59.4735 19.8363 61.6059 22.2091 61.7765 24.1454C61.8049 24.4454 61.6912 24.6909 61.549 24.9091C60.8098 26.3545 59.6157 27.0909 57.9383 27.0909C57.3981 27.0909 56.9147 27.0091 56.403 26.8454C55.2088 26.4636 54.3275 25.8636 54.1 24.5545C54.0147 24.0363 53.8726 23.4909 53.7589 22.9727C53.2187 20.1636 55.2088 19.1273 57.5118 19.5091ZM62.0324 22.2909C61.549 21.2545 60.9804 20.6 60.3265 20C59.0755 18.8818 57.5687 18.4454 55.8912 18.6091C53.8726 18.8273 52.6216 20.3818 52.849 22.3182C52.8775 22.6727 53.0196 23.0273 52.8775 23.4363C52.1098 21.8545 51.8824 20.1909 51.6549 18.5273C51.2569 15.4727 51.0294 12.3909 50.7736 9.33635C50.6598 8.0818 50.6883 6.79998 51.0294 5.54544C51.1432 5.10907 51.2285 4.64544 51.399 4.23635C52.2235 2.16362 54.0147 1.39998 56.2039 2.16362C58.3932 2.95453 59.9285 4.42725 60.9804 6.39089C61.0941 6.60907 61.1226 6.79998 61.1226 7.04544C61.0373 8.6818 61.2079 10.2909 61.549 11.9C61.6059 12.2 61.6059 12.5273 61.4922 12.8273C60.5824 15.0363 61.0657 17.1909 61.8334 19.3182C62.1177 20.2182 62.3167 21.0909 62.0324 22.2909ZM62.0039 11.1363C61.7765 9.41816 61.6628 7.72725 62.0608 6.00907C62.7716 3.00907 66.1834 1.97271 68.6569 4.01816C69.3392 4.59089 69.8226 5.29998 70.1353 6.11816C70.903 8.0818 71.0451 10.1545 71.2441 12.3636C66.0412 10.6182 64.4775 10.5091 62.2598 11.7091C61.9755 11.6 62.0324 11.3273 62.0039 11.1363ZM72.1824 15.1182C70.5618 17.9545 67.5196 18.6636 64.7334 16.8363C63.7098 16.1545 62.8285 15.3363 62.2314 14.3C62.8285 12.5 64.2785 11.6545 66.4108 11.9C68.7138 12.1727 70.7892 13.0182 72.6088 14.3545C72.4383 14.6273 72.3245 14.8727 72.1824 15.1182ZM81.6785 26.1363C80.8255 20.3273 77.5843 16.0454 72.4098 13.0454C72.2393 11.4909 72.0402 9.99089 71.8412 8.3818C78.2383 8.9818 84.5785 8.32726 91.0324 7.86362C89.4687 14 88.6441 19.8636 91.7716 25.6727C88.4736 26.1363 85.1471 25.9182 81.6785 26.1363Z" fill="#303984"/>
</svg>
